<?xml version="1.0" encoding="UTF-8"?>
<svg id="nub" xmlns="http://www.w3.org/2000/svg" viewBox="0 0 97.53 68.01">
  <defs>
    <style>
      .cls-1 {
        stroke: #d56045;
        stroke-width: 3px;
      }

      .cls-1, .cls-2 {
        stroke-linecap: round;
        stroke-linejoin: round;
      }

      .cls-1, .cls-2, .cls-3 {
        fill: none;
      }

      .cls-4 {
        fill: #373838;
      }

      .cls-2 {
        stroke-dasharray: 0 0 0 0 0 0 4 2;
      }

      .cls-2, .cls-3 {
        stroke: #231815;
      }

      .cls-3 {
        stroke-miterlimit: 10;
      }
    </style>
  </defs>
  <path id="_0003" data-name=" 0003" class="cls-1" d="M62.03,35.6c-.8,0-1.5-.1-2.3-.1-1.1,11.5-1.6,21.8-1.7,30.8,.4,0,.8,.1,1.2,.1,14.3,.5,26.5-.8,36.8-3.1-.6-9.8-1.9-19.9-3.9-29.7-8.2,1.6-18.2,2.6-30.1,2Z"/>
  <path id="_0002" data-name=" 0002" class="cls-3" d="M31.63,31.2c0,.1-.1,.2-.1,.2-2.4,7.8-4.1,18.3-4.6,29.2,9.1,2.9,19.6,5,31,5.5,.1-9,.6-19.2,1.7-30.8-11.2-.5-20.4-2-28-4.1Z"/>
  <path id="_0001" data-name=" 0001" class="cls-2" d="M31.55,31.45c.03-.08,.06-.16,.08-.25-9.47-2.54-16.3-5.81-21.18-8.96C6.16,30.1,2.66,39.39,.5,49.04c6.75,3.91,15.72,8.27,26.46,11.65,.45-10.96,2.15-21.42,4.59-29.25h0Z"/>
  <g id="_1111" data-name=" 1111">
    <path class="cls-4" d="M59.64,35.42c.46-8.8,1.46-17.67,2.76-26.4,.42-2.92,.96-5.83,1.48-8.74l.26,.33c-5.77-.4-12.64-.4-17.52,2.46-6.02,8.76-11.21,18.16-14.5,28.28l-.36-.65c2.27,.62,4.57,1.14,6.88,1.64,6.9,1.49,14.01,2.38,21,3.08h0Zm.07,.08c-7.16-.16-14.23-.88-21.26-2.21-2.34-.44-4.65-.99-6.95-1.59-.28-.07-.45-.37-.36-.65,3.23-10.25,8.74-19.65,15.13-28.23C50.26,.45,55.1,.23,59.62,.02c1.52-.04,3.04-.02,4.55,.03,.15,0,.27,.13,.27,.28-1.22,8.77-3.59,26.39-4.73,35.17h0Z"/>
  </g>
</svg>